<?xml version="1.0" standalone="no"?>
<!DOCTYPE svg PUBLIC "-//W3C//DTD SVG 20010904//EN"
 "http://www.w3.org/TR/2001/REC-SVG-20010904/DTD/svg10.dtd">
<svg version="1.0" xmlns="http://www.w3.org/2000/svg"
 width="512.000000pt" height="512.000000pt" viewBox="0 0 512.000000 512.000000"
 preserveAspectRatio="xMidYMid meet">
<metadata>
Created by potrace 1.15, written by Peter Selinger 2001-2017
</metadata>
<g transform="translate(0.000000,512.000000) scale(0.100000,-0.100000)"
fill="#000000" stroke="none">
<path d="M2560 5069 c-264 -34 -508 -126 -725 -272 -123 -84 -323 -285 -404
-406 -265 -400 -330 -866 -181 -1312 78 -236 184 -404 369 -589 131 -131 222
-200 363 -275 l83 -44 -55 -23 c-105 -42 -305 -147 -398 -208 -92 -59 -94 -60
-116 -43 -12 10 -219 185 -459 388 -241 204 -450 375 -465 382 -15 7 -46 12
-70 13 -102 1 -182 -77 -182 -177 0 -82 15 -97 484 -493 l444 -375 -47 -50
c-98 -105 -217 -277 -291 -421 -83 -162 -165 -397 -177 -511 -5 -47 -3 -54 22
-77 83 -77 522 -285 809 -383 106 -36 320 -91 451 -117 294 -57 945 -60 1262
-6 400 69 846 235 1208 450 222 132 295 195 295 251 0 81 -142 410 -246 572
-106 165 -289 367 -443 490 -162 129 -386 258 -554 318 -37 13 -67 27 -67 30
0 3 19 14 43 25 172 76 445 320 570 509 114 173 184 342 229 549 18 83 22 134
22 286 0 152 -4 203 -22 286 -68 315 -195 548 -421 774 -215 215 -447 347
-733 421 -174 44 -426 60 -598 38z m1021 -998 c146 -46 256 -168 288 -319 14
-69 14 -385 0 -454 -32 -151 -142 -273 -288 -319 -60 -18 -98 -19 -855 -19
-699 0 -799 2 -847 16 -150 45 -269 177 -299 334 -13 68 -13 362 0 430 15 79
52 153 107 211 58 63 103 92 180 118 56 20 84 20 855 21 761 0 799 -1 859 -19z"/>
<path d="M2181 3713 c-104 -52 -141 -236 -68 -345 72 -106 212 -106 284 1 76
113 41 290 -69 347 -36 19 -105 17 -147 -3z"/>
<path d="M3050 3711 c-19 -10 -48 -40 -65 -66 -27 -44 -30 -56 -30 -134 0
-103 19 -149 78 -192 93 -67 220 -18 262 100 52 148 -34 311 -165 311 -25 0
-61 -8 -80 -19z"/>
</g>
</svg>
